<?xml version="1.0" encoding="UTF-8"?>
<!-- (c) Carrd Inc. All rights reserved. All logos and trademarks are property of their respective owners. -->
<svg xmlns="http://www.w3.org/2000/svg" version="1.1" xmlns:xlink="http://www.w3.org/1999/xlink" viewBox="0 0 40 40" display="none" width="0" height="0">
	<symbol id="menu" viewBox="0 0 40 40"><path d="M37,10.1V7.3c0-0.4-0.1-0.7-0.4-1c-0.3-0.3-0.6-0.4-1-0.4H4.4C4,5.8,3.7,6,3.4,6.3S3,6.9,3,7.3v2.8c0,0.4,0.1,0.7,0.4,1 s0.6,0.4,1,0.4h31.2c0.4,0,0.7-0.1,1-0.4C36.9,10.8,37,10.5,37,10.1z M37,21.4v-2.8c0-0.4-0.1-0.7-0.4-1c-0.3-0.3-0.6-0.4-1-0.4H4.4 c-0.4,0-0.7,0.1-1,0.4S3,18.2,3,18.6v2.8c0,0.4,0.1,0.7,0.4,1s0.6,0.4,1,0.4h31.2c0.4,0,0.7-0.1,1-0.4C36.9,22.1,37,21.8,37,21.4z M37,32.8v-2.8c0-0.4-0.1-0.7-0.4-1c-0.3-0.3-0.6-0.4-1-0.4H4.4c-0.4,0-0.7,0.1-1,0.4c-0.3,0.3-0.4,0.6-0.4,1v2.8 c0,0.4,0.1,0.7,0.4,1s0.6,0.4,1,0.4h31.2c0.4,0,0.7-0.1,1-0.4C36.9,33.5,37,33.1,37,32.8z"/></symbol>
</svg>
